<svg width="1200" height="630" viewBox="0 0 1200 630" xmlns="http://www.w3.org/2000/svg">
  <defs>
    <linearGradient id="ogGold" x1="820" y1="150" x2="1120" y2="470" gradientUnits="userSpaceOnUse">
      <stop stop-color="#E6C766"/><stop offset="0.55" stop-color="#C6A24B"/><stop offset="1" stop-color="#A9821F"/>
    </linearGradient>
    <linearGradient id="ogCrim" x1="820" y1="360" x2="1080" y2="520" gradientUnits="userSpaceOnUse">
      <stop stop-color="#E23A4E"/><stop offset="1" stop-color="#8E1B2E"/>
    </linearGradient>
    <radialGradient id="ogGlow" cx="0.72" cy="0.42" r="0.6">
      <stop offset="0" stop-color="#E23A4E" stop-opacity="0.10"/>
      <stop offset="0.5" stop-color="#C6A24B" stop-opacity="0.08"/>
      <stop offset="1" stop-color="#C6A24B" stop-opacity="0"/>
    </radialGradient>
  </defs>

  <rect width="1200" height="630" fill="#FAFAF8"/>
  <rect width="1200" height="630" fill="url(#ogGlow)"/>
  <rect x="0" y="0" width="14" height="630" fill="url(#ogCrim)"/>

  <!-- Text block -->
  <text x="80" y="150" font-family="Arial, Helvetica, sans-serif" font-size="24" font-weight="700" letter-spacing="4" fill="#8E1B2E">AN AROUSAL-FIRST APPROACH TO ED</text>
  <text x="76" y="270" font-family="Arial, Helvetica, sans-serif" font-size="104" font-weight="800" letter-spacing="-3" fill="#8E1B2E">Apomorphine</text>
  <text x="80" y="342" font-family="Arial, Helvetica, sans-serif" font-size="52" font-weight="700" letter-spacing="-1" fill="#17171B">for Erectile Dysfunction</text>
  <text x="80" y="420" font-family="Arial, Helvetica, sans-serif" font-size="27" font-weight="400" fill="#4c4c54">The dopamine-first treatment — how it works,</text>
  <text x="80" y="458" font-family="Arial, Helvetica, sans-serif" font-size="27" font-weight="400" fill="#4c4c54">the clinical evidence, and top-ranked options.</text>

  <text x="80" y="556" font-family="Arial, Helvetica, sans-serif" font-size="26" font-weight="700" fill="#8E1B2E">www.apomorphine.com</text>

  <!-- Molecule (apomorphine skeletal) -->
  <svg x="720" y="115" width="420" height="400" viewBox="40 78 320 288">
    <g stroke="url(#ogGold)" stroke-width="5.2" stroke-linecap="round" stroke-linejoin="round" fill="none">
      <path d="M150 104 L190 127 L190 173 L150 196 L110 173 L110 127 Z"/>
      <path d="M270 173 L310 196 L310 242 L270 265 L230 242 L230 196 Z"/>
      <path d="M190 173 L230 196"/>
    </g>
    <g stroke="url(#ogGold)" stroke-width="3.2" stroke-linecap="round" fill="none" opacity="0.9">
      <path d="M119 128.8 L147 112.7"/><path d="M184 134 L184 166"/><path d="M147 187.4 L119 171.3"/>
      <path d="M273 181.7 L301 197.8"/><path d="M301 240.3 L273 256.4"/><path d="M236 235 L236 203"/>
    </g>
    <g stroke="url(#ogCrim)" stroke-width="5.2" stroke-linecap="round" stroke-linejoin="round" fill="none">
      <path d="M150 196 L150 242 L190 265 L230 242"/>
      <path d="M190 265 L190 311 L150 334 L110 311 L110 265 L150 242"/>
      <path d="M190 311 L228 333"/>
      <path d="M110 127 L82 110"/>
      <path d="M110 173 L82 190"/>
    </g>
    <g stroke="url(#ogCrim)" stroke-width="2.6" stroke-linecap="round">
      <path d="M198 267.2 L201 272.8"/><path d="M203.8 269.8 L207.8 277.2"/>
      <path d="M209.8 272.2 L214.6 281.4"/><path d="M215.6 274.7 L221.4 285.7"/>
    </g>
    <g font-family="Arial, sans-serif" font-weight="700" font-size="21" fill="#8E1B2E">
      <text x="78" y="117" text-anchor="end">HO</text>
      <text x="78" y="197" text-anchor="end">HO</text>
      <text x="230" y="292">H</text>
    </g>
    <circle cx="190" cy="311" r="10" fill="#FBF7EF"/>
    <text x="190" y="318" text-anchor="middle" font-family="Arial, sans-serif" font-weight="700" font-size="21" fill="#8E1B2E">N</text>
  </svg>
</svg>
